<svg height="512pt" viewBox="-8 0 511 512" width="512pt" xmlns="http://www.w3.org/2000/svg"><g fill="#d9edff"><path d="m306.40625 148.992188h-116.6875c-4.628906 0-8.382812-3.457032-8.382812-7.726563 0-4.265625 3.753906-7.726563 8.382812-7.726563h116.6875c4.628906 0 8.378906 3.460938 8.378906 7.726563 0 4.269531-3.75 7.726563-8.378906 7.726563zm0 0"/><path d="m317.808594 183.820312h-139.492188c-4.628906 0-8.382812-3.460937-8.382812-7.726562 0-4.269531 3.753906-7.730469 8.382812-7.730469h139.492188c4.628906 0 8.378906 3.460938 8.378906 7.730469 0 4.265625-3.75 7.726562-8.378906 7.726562zm0 0"/><path d="m306.40625 218.644531h-116.6875c-4.628906 0-8.382812-3.457031-8.382812-7.726562 0-4.265625 3.753906-7.726563 8.382812-7.726563h116.6875c4.628906 0 8.378906 3.460938 8.378906 7.726563 0 4.269531-3.75 7.726562-8.378906 7.726562zm0 0"/><path d="m306.40625 308.808594h-116.6875c-4.628906 0-8.382812-3.457032-8.382812-7.726563s3.753906-7.726562 8.382812-7.726562h116.6875c4.628906 0 8.378906 3.457031 8.378906 7.726562s-3.75 7.726563-8.378906 7.726563zm0 0"/><path d="m317.808594 50.3125h-135.035156c-4.628907 0-8.382813-3.460938-8.382813-7.726562 0-4.269532 3.753906-7.730469 8.382813-7.730469h135.035156c4.628906 0 8.378906 3.460937 8.378906 7.730469 0 4.265624-3.75 7.726562-8.378906 7.726562zm0 0"/><path d="m317.808594 477.144531h-135.035156c-4.628907 0-8.382813-3.460937-8.382813-7.730469 0-4.265624 3.753906-7.726562 8.382813-7.726562h135.035156c4.628906 0 8.378906 3.460938 8.378906 7.726562 0 4.269532-3.75 7.730469-8.378906 7.730469zm0 0"/><path d="m317.808594 343.632812h-139.492188c-4.628906 0-8.382812-3.457031-8.382812-7.726562 0-4.265625 3.753906-7.726562 8.382812-7.726562h139.492188c4.628906 0 8.378906 3.460937 8.378906 7.726562 0 4.269531-3.75 7.726562-8.378906 7.726562zm0 0"/><path d="m306.40625 378.460938h-116.6875c-4.628906 0-8.382812-3.460938-8.382812-7.726563 0-4.269531 3.753906-7.726563 8.382812-7.726563h116.6875c4.628906 0 8.378906 3.457032 8.378906 7.726563 0 4.265625-3.75 7.726563-8.378906 7.726563zm0 0"/></g><path d="m439.203125 183.820312h-68c-4.265625 0-7.726563-3.460937-7.726563-7.726562 0-4.269531 3.457032-7.730469 7.726563-7.730469h63.394531l23.753906-43.984375c2.03125-3.757812 6.71875-5.15625 10.472657-3.128906 3.753906 2.027344 5.152343 6.71875 3.125 10.472656l-25.945313 48.039063c-1.347656 2.5-3.957031 4.058593-6.800781 4.058593zm0 0" fill="#fc2b3a"/><path d="m31.148438 392.507812c-1.242188.003907-2.5-.296874-3.667969-.929687-3.753907-2.027344-5.152344-6.714844-3.125-10.46875l25.945312-48.042969c1.351563-2.496094 3.960938-4.054687 6.800781-4.054687h68c4.269532 0 7.726563 3.460937 7.726563 7.726562 0 4.269531-3.457031 7.726563-7.726563 7.726563h-63.390624l-23.757813 43.988281c-1.398437 2.585937-4.058594 4.054687-6.804687 4.054687zm0 0" fill="#0094fd"/><path d="m248.152344 399.539062c35.453125 0 64.296875-28.542968 64.296875-63.628906 0-35.085937-28.84375-63.632812-64.296875-63.632812-53.402344 0-96.851563-43.148438-96.851563-96.183594 0-53.039062 43.449219-96.1875 96.851563-96.1875 35.453125 0 64.296875-28.542969 64.296875-63.628906 0-8.988282 7.289062-16.277344 16.277343-16.277344 8.988282 0 16.277344 7.289062 16.277344 16.277344 0 53.035156-43.449218 96.183594-96.851562 96.183594-35.453125 0-64.296875 28.546874-64.296875 63.632812s28.84375 63.628906 64.296875 63.628906c53.402344 0 96.851562 43.148438 96.851562 96.183594 0 53.039062-43.449218 96.1875-96.851562 96.1875-35.453125 0-64.296875 28.542969-64.296875 63.628906 0 8.988282-7.289063 16.277344-16.277344 16.277344s-16.277344-7.289062-16.277344-16.277344c0-53.035156 43.449219-96.183594 96.851563-96.183594zm0 0" fill="#ff646f"/><path d="m182.082031 495.722656c0-53.035156 43.445313-96.183594 96.851563-96.183594 35.453125 0 64.292968-28.542968 64.292968-63.628906 0-35.085937-28.839843-63.632812-64.292968-63.632812-53.40625 0-96.851563-43.148438-96.851563-96.183594s43.445313-96.183594 96.851563-96.183594c35.453125 0 64.292968-28.546875 64.292968-63.632812 0-1.84375.324219-3.613282.890626-5.265625-2.191407-6.402344-8.246094-11.011719-15.390626-11.011719-8.992187 0-16.277343 7.289062-16.277343 16.277344 0 35.085937-28.84375 63.628906-64.296875 63.628906-53.402344 0-96.851563 43.148438-96.851563 96.1875 0 53.035156 43.449219 96.183594 96.851563 96.183594 35.453125 0 64.296875 28.542968 64.296875 63.628906s-28.84375 63.628906-64.296875 63.628906c-53.402344 0-96.851563 43.148438-96.851563 96.1875 0 8.988282 7.289063 16.273438 16.277344 16.273438 7.144531 0 13.199219-4.605469 15.390625-11.007813-.566406-1.652343-.886719-3.417969-.886719-5.265625zm0 0" fill="#ff4755"/><path d="m248.152344 399.539062c-35.453125 0-64.296875-28.542968-64.296875-63.628906 0-35.085937 28.84375-63.632812 64.296875-63.632812 53.402344 0 96.851562-43.148438 96.851562-96.183594s-43.449218-96.183594-96.851562-96.183594c-35.453125 0-64.296875-28.546875-64.296875-63.632812 0-8.988282-7.289063-16.27343775-16.277344-16.27343775s-16.277344 7.28515575-16.277344 16.27343775c0 53.039062 43.449219 96.1875 96.851563 96.1875 35.453125 0 64.296875 28.542968 64.296875 63.628906s-28.84375 63.628906-64.296875 63.628906c-53.402344 0-96.851563 43.148438-96.851563 96.1875 0 53.035156 43.449219 96.183594 96.851563 96.183594 35.453125 0 64.296875 28.542969 64.296875 63.628906 0 8.992188 7.289062 16.277344 16.277343 16.277344 8.988282 0 16.277344-7.289062 16.277344-16.277344 0-53.035156-43.449218-96.183594-96.851562-96.183594zm0 0" fill="#60b8ff"/><path d="m343.226562 495.722656c0-35.085937-28.839843-63.628906-64.296874-63.628906-53.402344 0-96.847657-43.148438-96.847657-96.183594 0-53.039062 43.445313-96.1875 96.847657-96.1875 35.457031 0 64.296874-28.542968 64.296874-63.628906s-28.839843-63.628906-64.296874-63.628906c-53.402344 0-96.847657-43.148438-96.847657-96.1875 0-1.84375.320313-3.613282.886719-5.265625-2.191406-6.402344-8.246094-11.011719-15.390625-11.011719-8.988281 0-16.277344 7.289062-16.277344 16.277344 0 53.035156 43.449219 96.183594 96.851563 96.183594 35.453125 0 64.296875 28.542968 64.296875 63.632812 0 35.085938-28.84375 63.628906-64.296875 63.628906-53.40625 0-96.851563 43.148438-96.851563 96.183594s43.449219 96.183594 96.851563 96.183594c35.453125 0 64.296875 28.546875 64.296875 63.632812 0 8.988282 7.285156 16.273438 16.277343 16.273438 7.144532 0 13.199219-4.605469 15.386719-11.007813-.5625-1.652343-.886719-3.417969-.886719-5.265625zm0 0" fill="#22a7ff"/><path d="m472.164062 137.402344c-13.035156 0-23.640624-10.605469-23.640624-23.640625 0-13.035157 10.605468-23.640625 23.640624-23.640625 13.035157 0 23.640626 10.605468 23.640626 23.640625 0 13.035156-10.605469 23.640625-23.640626 23.640625zm0-31.828125c-4.515624 0-8.1875 3.671875-8.1875 8.1875s3.671876 8.1875 8.1875 8.1875c4.515626 0 8.1875-3.671875 8.1875-8.1875s-3.671874-8.1875-8.1875-8.1875zm0 0" fill="#ff646f"/><path d="m24.140625 422.710938c-13.035156 0-23.640625-10.605469-23.640625-23.640626 0-13.035156 10.605469-23.640624 23.640625-23.640624 13.039063 0 23.644531 10.605468 23.644531 23.640624 0 13.035157-10.605468 23.640626-23.644531 23.640626zm0-31.828126c-4.511719 0-8.1875 3.671876-8.1875 8.1875 0 4.515626 3.675781 8.1875 8.1875 8.1875 4.515625 0 8.1875-3.671874 8.1875-8.1875 0-4.515624-3.671875-8.1875-8.1875-8.1875zm0 0" fill="#60b8ff"/></svg>